<svg width="110" height="110" xmlns="http://www.w3.org/2000/svg">

 <g>
  <title>background</title>
  <rect fill="none" id="canvas_background" height="128" width="128" y="-1" x="-1"/>
 </g>
 <g>
  <title>Layer 1</title>
  <path id="svg_2" fill="#0484AB" d="m87,28.98l0,52c0,3.31 -2.69,6 -6,6l-52,0c-3.31,0 -6,-2.69 -6,-6l0,-52c0,-3.31 2.69,-6 6,-6l52,0c3.31,0 6,2.69 6,6z"/>
  <path id="svg_3" fill="#059BBF" d="m87,31.93l0,49.05c0,3.31 -2.69,6 -6,6l-52,0c-3.31,0 -6,-2.69 -6,-6l0,-13.74l11.21,-7.21l17.01,3l15.53,-10.35l8.96,-15.91l11.29,-4.84z"/>
  <path id="svg_4" fill="#21B2D1" d="m87,39.98l0,-2l-7,0l0,-4l-2,0l0,4l-5,0l0,2l5,0l0,6l-6,0l0,-3l-2,0l0,3l-1,0l0,2l1,0l0,6l-6,0l0,0l-2,0l0,0l0,0l0,2l0,0l0,6l-6,0l0,-2l-2,0l0,2l-6,0l0,-1.001l-2,0l0,1.001l-6,0l0,-2l-2,0l0,2l-6,0l0,-1.001l-2,0l0,1.001l-2.22,0l0,2l2.22,0l0,6l-7,0l0,2l7,0l0,6l-7,0l0,2l7,0l0,6.999l2,0l0,-6.999l6,0l0,7l2,0l0,-7l6,0l0,6.999l2,0l0,-6.999l6,0l0,7l2,0l0,-7l6,0l0,7l2,0l0,-7l6,0l0,7l2,0l0,-7l6,0l0,7l2,0l0,-7l7,0l0,-2l-7,0l0,-6l7,0l0,-2l-7,0l0,-6l7,0l0,-2l-7,0l0,-6l7,0l0,-2l-7,0l0,-6l7,0l0,-2l-7,0l0,-6l7,0zm-23,16l6,0l0,6l-6,0l0,-6zm6,8l0,6l-6,0l0,-6l6,0zm-8,0l0,6l-6,0l0,-6l6,0zm-8,0l0,6l-6,0l0,-6l6,0zm-8,0l0,6l-6,0l0,-6l6,0zm-14,0l6,0l0,6l-6,0l0,-6zm0,14l0,-6l6,0l0,6l-6,0zm8,0l0,-6l6,0l0,6l-6,0zm8,0l0,-6l6,0l0,6l-6,0zm8,0l0,-6l6,0l0,6l-6,0zm8,0l0,-6l6,0l0,6l-6,0zm14,0l-6,0l0,-6l6,0l0,6zm0,-8l-6,0l0,-6l6,0l0,6zm0,-8l-6,0l0,-6l6,0l0,6zm0,-8l-6,0l0,-6l6,0l0,6z"/>
  <path id="svg_5" fill="#FFFFFF" d="m87,29.75l-10.657,4.561c-2.675,-1.35 -5.437,1.629 -3.915,4.192l-5.916,10.529c-2.138,-0.371 -3.949,1.555 -3.412,3.681l-10.308,6.875c-0.5,-0.377 -1.117,-0.608 -1.792,-0.608c-1.12,0 -2.084,0.621 -2.6,1.53l-11.45,-2.022c-0.679,-4.095 -6.793,-2.775 -5.864,1.178l-8.086,5.194l0,2.38l9.17,-5.898c1.483,1.151 3.537,0.68 4.429,-0.891l11.45,2.02c0.235,1.422 1.462,2.509 2.95,2.509c1.892,0 3.398,-1.766 2.898,-3.735l10.31,-6.871c2.853,2.14 6.397,-1.663 4.042,-4.358l5.754,-10.218c2.462,0.871 4.714,-1.556 3.781,-3.917l9.216,-3.951l0,-2.18z"/>
  <polygon id="svg_6" fill="#FFFFFF" points="59,47.98 51,53.98 43,47.98 43,29.98 59,29.98   "/>
  <path id="svg_8" fill="#00bf5f" d="m51.035,34.133c0.44,0 0.789,0.349 0.789,0.789l0,0.212c0.819,0.122 1.547,0.364 2.199,0.728c0.288,0.167 0.546,0.455 0.546,0.91c0,0.576 -0.455,1.016 -1.031,1.016c-0.182,0 -0.364,-0.045 -0.531,-0.136c-0.425,-0.228 -0.849,-0.41 -1.259,-0.516l0,2.305c2.306,0.622 3.292,1.562 3.292,3.261s-1.304,2.791 -3.215,3.003l0,0.804c0,0.44 -0.349,0.789 -0.789,0.789c-0.439,0 -0.789,-0.349 -0.789,-0.789l0,-0.819c-1.077,-0.137 -2.093,-0.516 -2.988,-1.062c-0.318,-0.197 -0.516,-0.5 -0.516,-0.91c0,-0.592 0.455,-1.032 1.046,-1.032c0.197,0 0.41,0.076 0.591,0.197c0.637,0.41 1.244,0.698 1.941,0.85l0,-2.412c-2.184,-0.592 -3.261,-1.426 -3.261,-3.23c0,-1.668 1.274,-2.791 3.185,-2.988l0,-0.182c0.002,-0.439 0.351,-0.788 0.79,-0.788zm-0.713,4.914l0,-2.048c-0.728,0.106 -1.046,0.47 -1.046,0.956c0,0.47 0.212,0.788 1.046,1.092zm1.426,2.654l0,2.108c0.713,-0.106 1.077,-0.44 1.077,-0.986c0,-0.5 -0.258,-0.833 -1.077,-1.122z"/>
 </g>
</svg>